<?xml version="1.0" encoding="UTF-8" standalone="no"?>
<!DOCTYPE svg PUBLIC "-//W3C//DTD SVG 1.1//EN"
 "http://www.w3.org/Graphics/SVG/1.1/DTD/svg11.dtd">
<!-- Generated by graphviz version 2.46.1 (20210213.1702)
 -->
<!-- Pages: 1 -->
<svg width="1286pt" height="305pt"
 viewBox="0.00 0.00 1286.00 305.00" xmlns="http://www.w3.org/2000/svg" xmlns:xlink="http://www.w3.org/1999/xlink">
<g id="graph0" class="graph" transform="scale(1 1) rotate(0) translate(4 301)">
<polygon fill="white" stroke="transparent" points="-4,4 -4,-301 1282,-301 1282,4 -4,4"/>
<!-- 0 -->
<g id="node1" class="node">
<title>0</title>
<polygon fill="none" stroke="black" points="524,-297 470,-297 470,-261 524,-261 524,-297"/>
<text text-anchor="middle" x="497" y="-275.3" font-family="Times,serif" font-size="14.00">Sex</text>
</g>
<!-- 1 -->
<g id="node2" class="node">
<title>1</title>
<polygon fill="none" stroke="black" points="417,-210 363,-210 363,-174 417,-174 417,-210"/>
<text text-anchor="middle" x="390" y="-188.3" font-family="Times,serif" font-size="14.00">Pclass</text>
</g>
<!-- 0&#45;&gt;1 -->
<g id="edge1" class="edge">
<title>0&#45;&gt;1</title>
<path fill="none" stroke="black" d="M475.35,-260.8C459.39,-248.13 437.5,-230.73 419.88,-216.74"/>
<polygon fill="black" stroke="black" points="421.63,-213.66 411.62,-210.18 417.27,-219.14 421.63,-213.66"/>
<text text-anchor="middle" x="469" y="-231.8" font-family="Times,serif" font-size="14.00">female</text>
</g>
<!-- 14 -->
<g id="node3" class="node">
<title>14</title>
<polygon fill="none" stroke="black" points="905,-210 851,-210 851,-174 905,-174 905,-210"/>
<text text-anchor="middle" x="878" y="-188.3" font-family="Times,serif" font-size="14.00">Pclass</text>
</g>
<!-- 0&#45;&gt;14 -->
<g id="edge2" class="edge">
<title>0&#45;&gt;14</title>
<path fill="none" stroke="black" d="M524.1,-271.96C590.99,-257.03 764.1,-218.41 840.65,-201.33"/>
<polygon fill="black" stroke="black" points="841.79,-204.66 850.79,-199.07 840.27,-197.83 841.79,-204.66"/>
<text text-anchor="middle" x="724" y="-231.8" font-family="Times,serif" font-size="14.00">male</text>
</g>
<!-- 2 -->
<g id="node4" class="node">
<title>2</title>
<polygon fill="none" stroke="black" points="171.5,-123 98.5,-123 98.5,-87 171.5,-87 171.5,-123"/>
<text text-anchor="middle" x="135" y="-101.3" font-family="Times,serif" font-size="14.00">Embarked</text>
</g>
<!-- 1&#45;&gt;2 -->
<g id="edge3" class="edge">
<title>1&#45;&gt;2</title>
<path fill="none" stroke="black" d="M362.71,-181.9C319.41,-167.47 234.45,-139.15 181.44,-121.48"/>
<polygon fill="black" stroke="black" points="182.52,-118.15 171.93,-118.31 180.31,-124.79 182.52,-118.15"/>
<text text-anchor="middle" x="281.5" y="-144.8" font-family="Times,serif" font-size="14.00">1</text>
</g>
<!-- 6 -->
<g id="node5" class="node">
<title>6</title>
<polygon fill="none" stroke="black" points="370.5,-123 297.5,-123 297.5,-87 370.5,-87 370.5,-123"/>
<text text-anchor="middle" x="334" y="-101.3" font-family="Times,serif" font-size="14.00">Embarked</text>
</g>
<!-- 1&#45;&gt;6 -->
<g id="edge4" class="edge">
<title>1&#45;&gt;6</title>
<path fill="none" stroke="black" d="M378.67,-173.8C370.7,-161.7 359.89,-145.3 350.91,-131.67"/>
<polygon fill="black" stroke="black" points="353.74,-129.6 345.32,-123.18 347.89,-133.45 353.74,-129.6"/>
<text text-anchor="middle" x="369.5" y="-144.8" font-family="Times,serif" font-size="14.00">2</text>
</g>
<!-- 10 -->
<g id="node6" class="node">
<title>10</title>
<polygon fill="none" stroke="black" points="557.5,-123 484.5,-123 484.5,-87 557.5,-87 557.5,-123"/>
<text text-anchor="middle" x="521" y="-101.3" font-family="Times,serif" font-size="14.00">Embarked</text>
</g>
<!-- 1&#45;&gt;10 -->
<g id="edge5" class="edge">
<title>1&#45;&gt;10</title>
<path fill="none" stroke="black" d="M416.51,-173.8C436.49,-160.84 464.07,-142.94 485.88,-128.79"/>
<polygon fill="black" stroke="black" points="488.05,-131.55 494.53,-123.18 484.24,-125.68 488.05,-131.55"/>
<text text-anchor="middle" x="467.5" y="-144.8" font-family="Times,serif" font-size="14.00">3</text>
</g>
<!-- 15 -->
<g id="node16" class="node">
<title>15</title>
<polygon fill="none" stroke="black" points="806.5,-123 733.5,-123 733.5,-87 806.5,-87 806.5,-123"/>
<text text-anchor="middle" x="770" y="-101.3" font-family="Times,serif" font-size="14.00">Embarked</text>
</g>
<!-- 14&#45;&gt;15 -->
<g id="edge15" class="edge">
<title>14&#45;&gt;15</title>
<path fill="none" stroke="black" d="M856.14,-173.8C840.04,-161.13 817.94,-143.73 800.16,-129.74"/>
<polygon fill="black" stroke="black" points="801.85,-126.61 791.82,-123.18 797.52,-132.11 801.85,-126.61"/>
<text text-anchor="middle" x="833.5" y="-144.8" font-family="Times,serif" font-size="14.00">1</text>
</g>
<!-- 19 -->
<g id="node17" class="node">
<title>19</title>
<polygon fill="none" stroke="black" points="987.5,-123 914.5,-123 914.5,-87 987.5,-87 987.5,-123"/>
<text text-anchor="middle" x="951" y="-101.3" font-family="Times,serif" font-size="14.00">Embarked</text>
</g>
<!-- 14&#45;&gt;19 -->
<g id="edge16" class="edge">
<title>14&#45;&gt;19</title>
<path fill="none" stroke="black" d="M892.77,-173.8C903.36,-161.47 917.78,-144.68 929.62,-130.89"/>
<polygon fill="black" stroke="black" points="932.39,-133.04 936.25,-123.18 927.08,-128.48 932.39,-133.04"/>
<text text-anchor="middle" x="921.5" y="-144.8" font-family="Times,serif" font-size="14.00">2</text>
</g>
<!-- 23 -->
<g id="node18" class="node">
<title>23</title>
<polygon fill="none" stroke="black" points="1179.5,-123 1106.5,-123 1106.5,-87 1179.5,-87 1179.5,-123"/>
<text text-anchor="middle" x="1143" y="-101.3" font-family="Times,serif" font-size="14.00">Embarked</text>
</g>
<!-- 14&#45;&gt;23 -->
<g id="edge17" class="edge">
<title>14&#45;&gt;23</title>
<path fill="none" stroke="black" d="M905.36,-182.22C950.52,-167.74 1041.16,-138.67 1096.52,-120.91"/>
<polygon fill="black" stroke="black" points="1097.63,-124.23 1106.09,-117.84 1095.5,-117.56 1097.63,-124.23"/>
<text text-anchor="middle" x="1029.5" y="-144.8" font-family="Times,serif" font-size="14.00">3</text>
</g>
<!-- 3 -->
<g id="node7" class="node">
<title>3</title>
<polygon fill="green" stroke="green" points="54,-36 0,-36 0,0 54,0 54,-36"/>
<text text-anchor="middle" x="27" y="-14.3" font-family="Times,serif" font-size="14.00">1</text>
</g>
<!-- 2&#45;&gt;3 -->
<g id="edge6" class="edge">
<title>2&#45;&gt;3</title>
<path fill="none" stroke="black" d="M113.14,-86.8C97.04,-74.13 74.94,-56.73 57.16,-42.74"/>
<polygon fill="black" stroke="black" points="58.85,-39.61 48.82,-36.18 54.52,-45.11 58.85,-39.61"/>
<text text-anchor="middle" x="93" y="-57.8" font-family="Times,serif" font-size="14.00">C</text>
</g>
<!-- 4 -->
<g id="node8" class="node">
<title>4</title>
<polygon fill="green" stroke="green" points="126,-36 72,-36 72,0 126,0 126,-36"/>
<text text-anchor="middle" x="99" y="-14.3" font-family="Times,serif" font-size="14.00">1</text>
</g>
<!-- 2&#45;&gt;4 -->
<g id="edge7" class="edge">
<title>2&#45;&gt;4</title>
<path fill="none" stroke="black" d="M127.71,-86.8C122.69,-74.93 115.91,-58.93 110.2,-45.45"/>
<polygon fill="black" stroke="black" points="113.4,-44.02 106.27,-36.18 106.95,-46.75 113.4,-44.02"/>
<text text-anchor="middle" x="125" y="-57.8" font-family="Times,serif" font-size="14.00">Q</text>
</g>
<!-- 5 -->
<g id="node9" class="node">
<title>5</title>
<polygon fill="green" stroke="green" points="198,-36 144,-36 144,0 198,0 198,-36"/>
<text text-anchor="middle" x="171" y="-14.3" font-family="Times,serif" font-size="14.00">1</text>
</g>
<!-- 2&#45;&gt;5 -->
<g id="edge8" class="edge">
<title>2&#45;&gt;5</title>
<path fill="none" stroke="black" d="M142.29,-86.8C147.31,-74.93 154.09,-58.93 159.8,-45.45"/>
<polygon fill="black" stroke="black" points="163.05,-46.75 163.73,-36.18 156.6,-44.02 163.05,-46.75"/>
<text text-anchor="middle" x="160" y="-57.8" font-family="Times,serif" font-size="14.00">S</text>
</g>
<!-- 7 -->
<g id="node10" class="node">
<title>7</title>
<polygon fill="green" stroke="green" points="270,-36 216,-36 216,0 270,0 270,-36"/>
<text text-anchor="middle" x="243" y="-14.3" font-family="Times,serif" font-size="14.00">1</text>
</g>
<!-- 6&#45;&gt;7 -->
<g id="edge9" class="edge">
<title>6&#45;&gt;7</title>
<path fill="none" stroke="black" d="M315.58,-86.8C302.14,-74.24 283.74,-57.05 268.82,-43.12"/>
<polygon fill="black" stroke="black" points="271.08,-40.44 261.39,-36.18 266.31,-45.56 271.08,-40.44"/>
<text text-anchor="middle" x="299" y="-57.8" font-family="Times,serif" font-size="14.00">C</text>
</g>
<!-- 8 -->
<g id="node11" class="node">
<title>8</title>
<polygon fill="green" stroke="green" points="342,-36 288,-36 288,0 342,0 342,-36"/>
<text text-anchor="middle" x="315" y="-14.3" font-family="Times,serif" font-size="14.00">1</text>
</g>
<!-- 6&#45;&gt;8 -->
<g id="edge10" class="edge">
<title>6&#45;&gt;8</title>
<path fill="none" stroke="black" d="M330.16,-86.8C327.55,-75.16 324.06,-59.55 321.09,-46.24"/>
<polygon fill="black" stroke="black" points="324.44,-45.17 318.84,-36.18 317.61,-46.7 324.44,-45.17"/>
<text text-anchor="middle" x="331" y="-57.8" font-family="Times,serif" font-size="14.00">Q</text>
</g>
<!-- 9 -->
<g id="node12" class="node">
<title>9</title>
<polygon fill="green" stroke="green" points="414,-36 360,-36 360,0 414,0 414,-36"/>
<text text-anchor="middle" x="387" y="-14.3" font-family="Times,serif" font-size="14.00">1</text>
</g>
<!-- 6&#45;&gt;9 -->
<g id="edge11" class="edge">
<title>6&#45;&gt;9</title>
<path fill="none" stroke="black" d="M344.73,-86.8C352.27,-74.7 362.49,-58.3 371,-44.67"/>
<polygon fill="black" stroke="black" points="373.97,-46.51 376.29,-36.18 368.03,-42.81 373.97,-46.51"/>
<text text-anchor="middle" x="368" y="-57.8" font-family="Times,serif" font-size="14.00">S</text>
</g>
<!-- 11 -->
<g id="node13" class="node">
<title>11</title>
<polygon fill="green" stroke="green" points="486,-36 432,-36 432,0 486,0 486,-36"/>
<text text-anchor="middle" x="459" y="-14.3" font-family="Times,serif" font-size="14.00">1</text>
</g>
<!-- 10&#45;&gt;11 -->
<g id="edge12" class="edge">
<title>10&#45;&gt;11</title>
<path fill="none" stroke="black" d="M508.45,-86.8C499.55,-74.59 487.44,-57.99 477.44,-44.28"/>
<polygon fill="black" stroke="black" points="480.25,-42.19 471.53,-36.18 474.59,-46.32 480.25,-42.19"/>
<text text-anchor="middle" x="499" y="-57.8" font-family="Times,serif" font-size="14.00">C</text>
</g>
<!-- 12 -->
<g id="node14" class="node">
<title>12</title>
<polygon fill="green" stroke="green" points="558,-36 504,-36 504,0 558,0 558,-36"/>
<text text-anchor="middle" x="531" y="-14.3" font-family="Times,serif" font-size="14.00">1</text>
</g>
<!-- 10&#45;&gt;12 -->
<g id="edge13" class="edge">
<title>10&#45;&gt;12</title>
<path fill="none" stroke="black" d="M523.02,-86.8C524.39,-75.16 526.23,-59.55 527.8,-46.24"/>
<polygon fill="black" stroke="black" points="531.29,-46.52 528.98,-36.18 524.33,-45.7 531.29,-46.52"/>
<text text-anchor="middle" x="532" y="-57.8" font-family="Times,serif" font-size="14.00">Q</text>
</g>
<!-- 13 -->
<g id="node15" class="node">
<title>13</title>
<polygon fill="green" stroke="green" points="630,-36 576,-36 576,0 630,0 630,-36"/>
<text text-anchor="middle" x="603" y="-14.3" font-family="Times,serif" font-size="14.00">1</text>
</g>
<!-- 10&#45;&gt;13 -->
<g id="edge14" class="edge">
<title>10&#45;&gt;13</title>
<path fill="none" stroke="black" d="M537.59,-86.8C549.6,-74.36 565.99,-57.36 579.36,-43.5"/>
<polygon fill="black" stroke="black" points="582.01,-45.8 586.43,-36.18 576.97,-40.94 582.01,-45.8"/>
<text text-anchor="middle" x="571" y="-57.8" font-family="Times,serif" font-size="14.00">S</text>
</g>
<!-- 16 -->
<g id="node19" class="node">
<title>16</title>
<polygon fill="red" stroke="red" points="702,-36 648,-36 648,0 702,0 702,-36"/>
<text text-anchor="middle" x="675" y="-14.3" font-family="Times,serif" font-size="14.00" fill="white">0</text>
</g>
<!-- 15&#45;&gt;16 -->
<g id="edge18" class="edge">
<title>15&#45;&gt;16</title>
<path fill="none" stroke="black" d="M750.78,-86.8C736.74,-74.24 717.53,-57.05 701.96,-43.12"/>
<polygon fill="black" stroke="black" points="703.98,-40.24 694.2,-36.18 699.31,-45.45 703.98,-40.24"/>
<text text-anchor="middle" x="733" y="-57.8" font-family="Times,serif" font-size="14.00">C</text>
</g>
<!-- 17 -->
<g id="node20" class="node">
<title>17</title>
<polygon fill="red" stroke="red" points="774,-36 720,-36 720,0 774,0 774,-36"/>
<text text-anchor="middle" x="747" y="-14.3" font-family="Times,serif" font-size="14.00" fill="white">0</text>
</g>
<!-- 15&#45;&gt;17 -->
<g id="edge19" class="edge">
<title>15&#45;&gt;17</title>
<path fill="none" stroke="black" d="M765.35,-86.8C762.17,-75.05 757.89,-59.24 754.26,-45.84"/>
<polygon fill="black" stroke="black" points="757.64,-44.91 751.65,-36.18 750.88,-46.74 757.64,-44.91"/>
<text text-anchor="middle" x="764" y="-57.8" font-family="Times,serif" font-size="14.00">Q</text>
</g>
<!-- 18 -->
<g id="node21" class="node">
<title>18</title>
<polygon fill="red" stroke="red" points="846,-36 792,-36 792,0 846,0 846,-36"/>
<text text-anchor="middle" x="819" y="-14.3" font-family="Times,serif" font-size="14.00" fill="white">0</text>
</g>
<!-- 15&#45;&gt;18 -->
<g id="edge20" class="edge">
<title>15&#45;&gt;18</title>
<path fill="none" stroke="black" d="M779.92,-86.8C786.82,-74.82 796.16,-58.62 803.98,-45.06"/>
<polygon fill="black" stroke="black" points="807.14,-46.59 809.1,-36.18 801.07,-43.09 807.14,-46.59"/>
<text text-anchor="middle" x="801" y="-57.8" font-family="Times,serif" font-size="14.00">S</text>
</g>
<!-- 20 -->
<g id="node22" class="node">
<title>20</title>
<polygon fill="red" stroke="red" points="918,-36 864,-36 864,0 918,0 918,-36"/>
<text text-anchor="middle" x="891" y="-14.3" font-family="Times,serif" font-size="14.00" fill="white">0</text>
</g>
<!-- 19&#45;&gt;20 -->
<g id="edge21" class="edge">
<title>19&#45;&gt;20</title>
<path fill="none" stroke="black" d="M938.86,-86.8C930.32,-74.7 918.74,-58.3 909.12,-44.67"/>
<polygon fill="black" stroke="black" points="911.75,-42.33 903.12,-36.18 906.03,-46.36 911.75,-42.33"/>
<text text-anchor="middle" x="929" y="-57.8" font-family="Times,serif" font-size="14.00">C</text>
</g>
<!-- 21 -->
<g id="node23" class="node">
<title>21</title>
<polygon fill="red" stroke="red" points="990,-36 936,-36 936,0 990,0 990,-36"/>
<text text-anchor="middle" x="963" y="-14.3" font-family="Times,serif" font-size="14.00" fill="white">0</text>
</g>
<!-- 19&#45;&gt;21 -->
<g id="edge22" class="edge">
<title>19&#45;&gt;21</title>
<path fill="none" stroke="black" d="M953.43,-86.8C955.07,-75.16 957.28,-59.55 959.15,-46.24"/>
<polygon fill="black" stroke="black" points="962.64,-46.57 960.58,-36.18 955.71,-45.59 962.64,-46.57"/>
<text text-anchor="middle" x="962" y="-57.8" font-family="Times,serif" font-size="14.00">Q</text>
</g>
<!-- 22 -->
<g id="node24" class="node">
<title>22</title>
<polygon fill="red" stroke="red" points="1062,-36 1008,-36 1008,0 1062,0 1062,-36"/>
<text text-anchor="middle" x="1035" y="-14.3" font-family="Times,serif" font-size="14.00" fill="white">0</text>
</g>
<!-- 19&#45;&gt;22 -->
<g id="edge23" class="edge">
<title>19&#45;&gt;22</title>
<path fill="none" stroke="black" d="M968,-86.8C980.3,-74.36 997.09,-57.36 1010.78,-43.5"/>
<polygon fill="black" stroke="black" points="1013.49,-45.75 1018.03,-36.18 1008.51,-40.83 1013.49,-45.75"/>
<text text-anchor="middle" x="1002" y="-57.8" font-family="Times,serif" font-size="14.00">S</text>
</g>
<!-- 24 -->
<g id="node25" class="node">
<title>24</title>
<polygon fill="red" stroke="red" points="1134,-36 1080,-36 1080,0 1134,0 1134,-36"/>
<text text-anchor="middle" x="1107" y="-14.3" font-family="Times,serif" font-size="14.00" fill="white">0</text>
</g>
<!-- 23&#45;&gt;24 -->
<g id="edge24" class="edge">
<title>23&#45;&gt;24</title>
<path fill="none" stroke="black" d="M1135.71,-86.8C1130.69,-74.93 1123.91,-58.93 1118.2,-45.45"/>
<polygon fill="black" stroke="black" points="1121.4,-44.02 1114.27,-36.18 1114.95,-46.75 1121.4,-44.02"/>
<text text-anchor="middle" x="1132" y="-57.8" font-family="Times,serif" font-size="14.00">C</text>
</g>
<!-- 25 -->
<g id="node26" class="node">
<title>25</title>
<polygon fill="red" stroke="red" points="1206,-36 1152,-36 1152,0 1206,0 1206,-36"/>
<text text-anchor="middle" x="1179" y="-14.3" font-family="Times,serif" font-size="14.00" fill="white">0</text>
</g>
<!-- 23&#45;&gt;25 -->
<g id="edge25" class="edge">
<title>23&#45;&gt;25</title>
<path fill="none" stroke="black" d="M1150.29,-86.8C1155.31,-74.93 1162.09,-58.93 1167.8,-45.45"/>
<polygon fill="black" stroke="black" points="1171.05,-46.75 1171.73,-36.18 1164.6,-44.02 1171.05,-46.75"/>
<text text-anchor="middle" x="1168" y="-57.8" font-family="Times,serif" font-size="14.00">Q</text>
</g>
<!-- 26 -->
<g id="node27" class="node">
<title>26</title>
<polygon fill="red" stroke="red" points="1278,-36 1224,-36 1224,0 1278,0 1278,-36"/>
<text text-anchor="middle" x="1251" y="-14.3" font-family="Times,serif" font-size="14.00" fill="white">0</text>
</g>
<!-- 23&#45;&gt;26 -->
<g id="edge26" class="edge">
<title>23&#45;&gt;26</title>
<path fill="none" stroke="black" d="M1164.86,-86.8C1180.96,-74.13 1203.06,-56.73 1220.84,-42.74"/>
<polygon fill="black" stroke="black" points="1223.48,-45.11 1229.18,-36.18 1219.15,-39.61 1223.48,-45.11"/>
<text text-anchor="middle" x="1207" y="-57.8" font-family="Times,serif" font-size="14.00">S</text>
</g>
</g>
</svg>
